<?xml version="1.0" standalone="no"?>
<!DOCTYPE svg PUBLIC "-//W3C//DTD SVG 20010904//EN"
 "http://www.w3.org/TR/2001/REC-SVG-20010904/DTD/svg10.dtd">
<svg version="1.0" xmlns="http://www.w3.org/2000/svg"
 width="1819.000000pt" height="1060.000000pt" viewBox="0 0 1819.000000 1060.000000"
 preserveAspectRatio="xMidYMid meet">
<metadata>
Created by potrace 1.16, written by Peter Selinger 2001-2019
</metadata>
<g transform="translate(0.000000,1060.000000) scale(0.100000,-0.100000)"
fill="#000000" stroke="none">
<path d="M11292 10575 c-19 -24 -21 -25 -62 -10 -61 22 -144 10 -171 -23 -19
-25 -22 -25 -169 -27 -137 -2 -152 -4 -197 -27 -34 -18 -102 -35 -228 -57 -99
-17 -191 -34 -205 -37 -14 -3 -164 -9 -335 -13 -338 -7 -354 -10 -407 -70 -23
-26 -33 -28 -149 -39 -117 -10 -259 -6 -419 13 -49 6 -59 4 -90 -19 -132 -96
-328 -183 -385 -171 -107 22 -122 16 -148 -60 -12 -33 -20 -41 -63 -55 -99
-34 -174 -84 -174 -116 0 -8 4 -23 10 -33 8 -16 6 -18 -28 -11 -20 3 -47 12
-59 18 -38 21 -80 14 -116 -18 -19 -16 -77 -47 -128 -68 -52 -21 -134 -64
-184 -96 -86 -56 -92 -58 -152 -57 -54 1 -71 -4 -138 -39 -111 -59 -306 -184
-338 -218 -25 -26 -33 -29 -71 -25 -38 5 -59 -3 -174 -60 -86 -43 -156 -86
-203 -125 -41 -35 -77 -58 -85 -55 -8 3 -35 2 -61 -2 -36 -5 -57 -17 -97 -54
-28 -26 -84 -75 -123 -108 -72 -60 -74 -60 -145 -65 -88 -6 -109 -18 -150 -85
-18 -29 -40 -55 -50 -58 -9 -4 -54 1 -99 10 -106 20 -208 19 -259 -1 -26 -11
-51 -31 -70 -59 -23 -34 -40 -46 -82 -60 -122 -39 -155 -62 -208 -141 -55 -81
-72 -94 -124 -94 -43 0 -160 -41 -187 -66 -11 -10 -33 -41 -49 -70 -35 -60
-101 -124 -159 -153 -51 -27 -75 -61 -69 -102 4 -27 -2 -37 -66 -94 -39 -35
-90 -78 -112 -97 -50 -40 -84 -87 -84 -116 0 -15 -20 -35 -72 -71 -40 -27 -83
-59 -95 -72 -29 -33 -78 -118 -87 -152 -4 -18 -23 -37 -55 -57 -54 -34 -79
-67 -145 -196 -38 -76 -52 -94 -96 -122 -60 -38 -85 -76 -102 -152 -8 -40 -30
-81 -77 -150 -72 -103 -100 -171 -101 -239 0 -39 -6 -50 -49 -96 -51 -54 -71
-101 -71 -166 0 -26 -11 -51 -40 -91 -25 -35 -44 -76 -51 -110 -6 -29 -24 -84
-39 -123 -15 -38 -30 -91 -34 -117 -4 -27 -17 -60 -30 -75 -37 -44 -62 -102
-80 -182 -10 -45 -31 -98 -53 -133 -31 -50 -35 -64 -31 -103 5 -41 2 -49 -34
-90 -39 -44 -39 -45 -54 -177 -18 -152 -15 -195 15 -294 14 -49 33 -85 60
-116 l39 -44 -176 -53 c-98 -30 -239 -71 -315 -92 l-137 -38 -253 15 -253 15
-429 -86 c-365 -73 -454 -95 -590 -142 -88 -31 -212 -71 -275 -90 -200 -60
-255 -82 -346 -142 -102 -66 -148 -113 -165 -172 -18 -57 9 -192 116 -594 47
-176 92 -358 100 -404 12 -69 32 -120 106 -275 183 -380 301 -643 326 -721
117 -372 157 -471 228 -570 25 -35 162 -210 304 -389 143 -179 292 -371 332
-428 110 -156 176 -219 319 -311 28 -18 160 -59 160 -49 0 3 -24 44 -54 91
-29 47 -62 102 -71 121 -31 61 -30 148 5 338 38 211 51 247 136 410 152 288
251 452 451 747 115 171 271 405 347 520 239 366 323 479 406 546 86 71 97 76
385 204 266 118 399 164 610 210 138 31 208 48 287 71 13 4 4 -18 -31 -73 -27
-44 -65 -111 -85 -151 -33 -66 -37 -83 -43 -181 -6 -101 -4 -111 20 -163 47
-103 136 -228 185 -259 25 -16 51 -29 58 -29 6 0 19 -11 28 -25 22 -33 58 -51
136 -65 36 -7 75 -21 86 -32 27 -24 116 -38 249 -38 119 0 220 18 334 60 139
51 251 81 334 90 120 13 282 93 545 268 205 136 214 141 255 136 40 -5 48 -1
177 91 176 125 232 154 284 144 71 -12 108 6 226 111 41 37 107 87 145 112 65
41 206 156 315 254 43 40 55 44 270 102 399 107 1307 275 1826 337 420 50 534
61 534 51 0 -4 -13 -24 -30 -44 -17 -22 -34 -60 -41 -92 -7 -30 -21 -64 -31
-76 -28 -31 -25 -153 5 -219 l23 -50 -22 -45 c-23 -45 -54 -223 -54 -305 0
-24 10 -58 26 -85 14 -24 39 -100 55 -168 45 -191 70 -224 173 -230 38 -3 72
1 86 8 19 10 24 10 32 -4 12 -21 138 -22 194 -2 87 30 117 30 195 -4 52 -23
81 -31 105 -27 24 4 37 0 49 -13 20 -22 57 -32 140 -36 33 -1 77 -6 97 -9 32
-6 48 -1 104 30 72 39 142 67 298 121 125 42 192 44 316 9 48 -14 108 -26 132
-26 23 0 81 -2 127 -5 46 -3 95 -3 108 1 27 6 88 62 275 250 162 163 171 181
194 375 5 48 12 60 49 96 24 23 49 53 56 65 9 17 18 150 29 439 10 228 16 420
14 425 -1 6 -5 22 -8 36 l-6 26 113 6 c92 4 145 14 302 55 105 28 210 58 234
67 25 9 89 25 143 36 54 11 110 24 124 29 33 13 208 27 429 35 205 7 630 34
665 41 14 3 113 35 220 71 234 78 202 61 1100 600 576 345 687 416 825 524 88
69 252 195 365 281 186 142 438 366 534 475 76 86 115 274 83 399 -25 97 -74
188 -129 240 -61 57 -216 132 -304 147 l-64 11 0 92 c0 89 -1 92 -35 136 -27
37 -49 52 -107 76 -40 16 -84 33 -98 37 -14 4 -63 29 -110 56 -47 27 -128 66
-181 87 -52 22 -127 62 -165 89 -38 28 -89 61 -114 73 -88 44 -167 95 -309
203 -150 113 -176 129 -301 182 -42 18 -155 71 -251 119 -146 73 -206 96 -374
146 -126 37 -276 91 -405 145 -246 104 -285 115 -662 199 -1011 223 -1753 350
-2121 365 l-169 6 -82 157 c-46 86 -94 170 -107 186 -13 17 -53 79 -89 138
-108 180 -187 246 -235 198 -9 -9 -17 -15 -19 -13 -2 2 -30 42 -62 89 -73 105
-254 317 -297 348 -41 29 -71 28 -95 -3z m-2932 -575 c0 -5 -4 -10 -9 -10 -6
0 -13 5 -16 10 -3 6 1 10 9 10 9 0 16 -4 16 -10z"/>
</g>
</svg>
