<svg xmlns="http://www.w3.org/2000/svg" width="1000" height="1000" viewBox="0 0 1000 1000" version="1.1">
	<path d="M 528.026 73.250 C 525.994 78.900, 524.946 100.841, 523.956 158.500 C 523.032 212.337, 522.543 223.142, 520.086 244 C 519.461 249.307, 518.580 284.618, 518.090 324 L 517.213 394.500 512.109 424.500 C 509.302 441, 506.485 456.750, 505.850 459.500 C 503.902 467.930, 497.246 484.868, 490.775 497.859 C 484.993 509.468, 484.190 510.559, 477.560 515.824 C 466.436 524.656, 450.512 540.602, 445.563 547.863 C 443.075 551.513, 437.218 558.007, 432.547 562.294 C 421.784 572.171, 420.805 574.707, 423.863 584.774 C 426.242 592.607, 426.399 594.740, 425.530 607.500 C 424.802 618.200, 421.566 629.115, 416.013 639.596 C 413.806 643.762, 412 647.866, 412 648.716 C 412 651.281, 398.128 674.705, 392.081 682.353 C 388.972 686.284, 383.334 694.225, 379.551 700 C 373.390 709.406, 369.395 716.715, 353.038 748.500 C 350.491 753.450, 346.515 760.545, 344.203 764.268 C 340.327 770.509, 338.891 775, 340.772 775 C 341.822 775, 356.023 760.418, 365.120 750 C 374.264 739.528, 384.796 725.997, 388.470 720 C 389.987 717.525, 393.146 713.475, 395.492 711 C 397.837 708.525, 404.150 700.200, 409.522 692.500 C 414.893 684.800, 420.586 676.843, 422.174 674.818 C 426.869 668.829, 434.301 663.205, 442.390 659.519 L 449.970 656.064 451.235 658.467 C 451.931 659.789, 454.056 661.917, 455.959 663.197 C 460.936 666.546, 467.333 679.248, 471.554 694.164 C 476.196 710.569, 476.739 715.108, 477.632 745 C 478.663 779.496, 478.657 780.231, 477.280 790.500 C 476.616 795.450, 474.663 812.100, 472.940 827.500 C 471.217 842.900, 468.989 859.325, 467.989 864 C 464.701 879.363, 462.666 898.184, 462.582 914 L 462.500 929.500 464.959 929.500 C 467.136 929.500, 467.965 928.233, 472.160 918.500 C 475.170 911.514, 477.481 904.216, 478.493 898.500 C 479.369 893.550, 481.034 886.125, 482.192 882 C 483.350 877.875, 484.641 872.025, 485.061 869 C 485.481 865.975, 486.768 860.830, 487.922 857.566 C 490.488 850.306, 494.876 818.008, 495.607 801 C 495.902 794.125, 496.972 784.675, 497.983 780 C 498.995 775.325, 500.107 768.800, 500.456 765.500 C 501.317 757.352, 503.671 745.335, 506.529 734.500 C 507.834 729.550, 510.095 720.109, 511.553 713.520 C 513.011 706.931, 515.508 698.256, 517.102 694.244 C 518.696 690.231, 520 685.999, 520 684.840 C 520 681.913, 522.155 675, 523.068 675 C 523.481 675, 525.715 678.487, 528.031 682.750 C 534.316 694.312, 538.846 699.697, 550.854 709.876 C 565.660 722.427, 570.801 729.875, 572.989 741.937 C 575.282 754.583, 571.869 764.899, 558.081 786.998 C 549.543 800.681, 546.488 809.415, 547.260 817.928 C 547.914 825.147, 549.954 829.083, 559.418 841.383 C 571.284 856.806, 571.782 860.003, 565.510 880.500 C 562.116 891.594, 561.719 900.929, 564.426 906 C 568.675 913.959, 582.740 929, 585.933 929 C 588.180 929, 586.771 926.838, 580.250 920.280 C 576.538 916.547, 571.737 910.906, 569.583 907.745 C 566.114 902.655, 565.674 901.342, 565.728 896.249 C 565.766 892.627, 566.990 886.800, 569.037 880.500 C 571.477 872.986, 572.298 868.636, 572.338 863 C 572.401 854.081, 570.371 849.497, 561.488 838.500 C 552.046 826.811, 550.500 823.573, 550.502 815.500 C 550.505 807.163, 552.874 801.535, 563.512 784.591 C 574.916 766.427, 578.333 754.688, 576.092 741.379 C 574.105 729.584, 570.303 723.325, 558.710 712.773 C 540.801 696.471, 536.915 692.004, 530.383 680.208 L 524.266 669.162 526.410 665.331 C 527.815 662.821, 529.397 661.380, 531 661.151 C 532.345 660.959, 534.636 659.801, 536.090 658.578 C 538.984 656.143, 542.363 654.642, 548.500 653.067 C 550.700 652.502, 555.875 650.233, 560 648.025 C 575.529 639.713, 578.325 638.596, 583.636 638.583 C 591.594 638.565, 596.727 642.337, 607.375 656.028 C 615.836 666.907, 624.258 682.121, 628.671 694.500 C 631.777 703.210, 639.026 749.197, 640.021 766.500 C 644.137 838.067, 643.856 836.006, 649.331 834.632 C 651.178 834.168, 652.226 832.799, 653.447 829.255 C 655.584 823.053, 657.958 806.384, 657.982 797.417 C 657.992 793.521, 658.500 787.843, 659.112 784.799 C 660.013 780.308, 659.834 775.703, 658.161 760.382 C 657.026 749.997, 655.796 736.100, 655.428 729.500 C 655.059 722.900, 654.197 716.375, 653.513 715 C 652.829 713.625, 652 707.100, 651.671 700.500 C 651.298 693.021, 650.120 684.544, 648.544 678 C 644.223 660.053, 642.941 625.368, 645.612 598.652 C 646.535 589.418, 644.590 585.762, 632.383 573.781 C 626.621 568.127, 621.365 563.329, 620.703 563.120 C 618.248 562.343, 615.689 559.380, 613.906 555.250 C 612.897 552.913, 611.640 551, 611.112 551 C 609.194 551, 603.891 545.676, 602.505 542.358 C 601.723 540.486, 599.721 538.177, 598.055 537.227 C 596.241 536.192, 594.394 533.896, 593.448 531.500 C 591.008 525.319, 587.166 520, 585.142 520 C 581.012 520, 566.200 498.505, 559.861 483.312 C 557.610 477.915, 555.150 469.986, 554.396 465.690 C 553.641 461.395, 552.342 455.251, 551.509 452.036 C 550.620 448.603, 549.758 439.242, 549.420 429.346 C 549.103 420.081, 548.154 406.200, 547.311 398.500 C 546.468 390.800, 545.634 373.250, 545.459 359.500 C 545.283 345.750, 544.643 331.125, 544.036 327 C 543.429 322.875, 543.206 316.575, 543.540 313 C 543.898 309.182, 543.499 301.354, 542.574 294.030 C 541.547 285.891, 540.971 272.865, 540.916 256.530 C 540.869 242.763, 540.409 228.800, 539.894 225.500 C 539.378 222.200, 538.544 204.315, 538.040 185.756 C 537.537 167.196, 536.848 151.563, 536.509 151.014 C 536.170 150.466, 535.507 132.801, 535.035 111.759 C 534.564 90.716, 533.865 72.713, 533.482 71.750 C 532.325 68.842, 529.315 69.669, 528.026 73.250" stroke="none" fill="black" fill-rule="evenodd"/>
</svg>